<svg xmlns="http://www.w3.org/2000/svg" xmlns:xlink="http://www.w3.org/1999/xlink" width="500" zoomAndPan="magnify" viewBox="0 0 375 374.999991" height="500" preserveAspectRatio="xMidYMid meet" version="1.0"><defs><g/></defs><g fill="#0097b2" fill-opacity="1"><g transform="translate(109.017416, 254.801647)"><g><path d="M 115.03125 -2.203125 C 115.269531 -1.710938 115.207031 -1.222656 114.84375 -0.734375 C 114.476562 -0.242188 113.992188 0 113.390625 0 L 88.109375 0 C 87.253906 0 86.703125 -0.363281 86.453125 -1.09375 L 57.515625 -82.796875 L 28.9375 -1.09375 C 28.820312 -0.363281 28.210938 0 27.109375 0 L 2.015625 0 C 1.160156 0 0.578125 -0.242188 0.265625 -0.734375 C -0.0351562 -1.222656 -0.0625 -1.710938 0.1875 -2.203125 L 55.6875 -145.4375 C 55.925781 -146.164062 56.535156 -146.53125 57.515625 -146.53125 C 58.492188 -146.53125 59.101562 -146.164062 59.34375 -145.4375 Z M 115.03125 -2.203125 "/></g></g></g><g fill="#b8aeae" fill-opacity="1"><g transform="translate(44.040752, 251.548548)"><g><path d="M 16.703125 -94.125 C 21.253906 -94.125 26.078125 -93.8125 31.171875 -93.1875 C 36.273438 -92.5625 41.21875 -91.34375 46 -89.53125 C 50.789062 -87.726562 55.125 -85.097656 59 -81.640625 C 62.882812 -78.191406 65.984375 -73.664062 68.296875 -68.0625 C 70.609375 -62.457031 71.765625 -55.457031 71.765625 -47.0625 C 71.765625 -38.976562 70.628906 -32.171875 68.359375 -26.640625 C 66.085938 -21.117188 63.03125 -16.613281 59.1875 -13.125 C 55.34375 -9.632812 51.003906 -6.925781 46.171875 -5 C 41.347656 -3.082031 36.40625 -1.769531 31.34375 -1.0625 C 26.289062 -0.351562 21.410156 0 16.703125 0 L 1.296875 0 C 0.429688 0 0 -0.351562 0 -1.0625 L 0 -38 L 18 -38 L 18 -17.296875 C 20.269531 -17.210938 22.9375 -17.269531 26 -17.46875 C 29.0625 -17.664062 32.195312 -18.253906 35.40625 -19.234375 C 38.625 -20.210938 41.625 -21.757812 44.40625 -23.875 C 47.195312 -26 49.4375 -28.941406 51.125 -32.703125 C 52.8125 -36.472656 53.65625 -41.257812 53.65625 -47.0625 C 53.65625 -54.507812 52.101562 -60.488281 49 -65 C 45.90625 -69.507812 41.671875 -72.722656 36.296875 -74.640625 C 30.921875 -76.566406 24.820312 -77.335938 18 -76.953125 L 18 -56.125 L 0 -56.125 L 0 -93.0625 C 0 -93.769531 0.429688 -94.125 1.296875 -94.125 Z M 16.703125 -94.125 "/></g></g></g><g fill="#5ce1e6" fill-opacity="1"><g transform="translate(195.123682, 165.52154)"><g><path d="M 9.234375 -25.703125 C 9.234375 -22.910156 9.84375 -20.28125 11.0625 -17.8125 C 12.289062 -15.34375 14.035156 -13.335938 16.296875 -11.796875 C 18.554688 -10.265625 21.207031 -9.5 24.25 -9.5 C 25.34375 -9.5 26.519531 -9.65625 27.78125 -9.96875 C 29.050781 -10.28125 30.234375 -10.710938 31.328125 -11.265625 L 10.4375 -32.15625 C 10.0625 -31.144531 9.765625 -30.085938 9.546875 -28.984375 C 9.335938 -27.890625 9.234375 -26.796875 9.234375 -25.703125 Z M 39.375 -25.703125 C 39.375 -28.523438 38.789062 -31.148438 37.625 -33.578125 C 36.46875 -36.003906 34.769531 -37.96875 32.53125 -39.46875 C 30.300781 -40.96875 27.539062 -41.71875 24.25 -41.71875 C 22.6875 -41.71875 21.238281 -41.523438 19.90625 -41.140625 C 18.570312 -40.765625 17.359375 -40.21875 16.265625 -39.5 L 37.71875 -18.046875 C 38.226562 -19.140625 38.628906 -20.378906 38.921875 -21.765625 C 39.222656 -23.160156 39.375 -24.472656 39.375 -25.703125 Z M 48.984375 -6.453125 C 49.367188 -6.203125 49.367188 -5.929688 48.984375 -5.640625 L 43.546875 -0.125 C 43.210938 0.0820312 42.875 0.0820312 42.53125 -0.125 L 37.984375 -4.75 C 35.992188 -3.4375 33.828125 -2.410156 31.484375 -1.671875 C 29.148438 -0.929688 26.738281 -0.5625 24.25 -0.5625 C 20.613281 -0.5625 17.304688 -1.238281 14.328125 -2.59375 C 11.359375 -3.945312 8.804688 -5.789062 6.671875 -8.125 C 4.546875 -10.46875 2.898438 -13.148438 1.734375 -16.171875 C 0.578125 -19.191406 0 -22.367188 0 -25.703125 C 0 -28.992188 0.554688 -32.132812 1.671875 -35.125 C 2.796875 -38.125 4.410156 -40.785156 6.515625 -43.109375 C 8.628906 -45.429688 11.171875 -47.265625 14.140625 -48.609375 C 17.117188 -49.960938 20.488281 -50.640625 24.25 -50.640625 C 27.875 -50.640625 31.160156 -49.960938 34.109375 -48.609375 C 37.066406 -47.265625 39.628906 -45.429688 41.796875 -43.109375 C 43.972656 -40.785156 45.640625 -38.125 46.796875 -35.125 C 47.960938 -32.132812 48.546875 -28.992188 48.546875 -25.703125 C 48.546875 -23.253906 48.175781 -20.707031 47.4375 -18.0625 C 46.695312 -15.425781 45.675781 -13.117188 44.375 -11.140625 Z M 48.984375 -6.453125 "/></g></g></g><g fill="#5ce1e6" fill-opacity="1"><g transform="translate(246.824401, 165.52154)"><g><path d="M 37.34375 -50.640625 C 37.769531 -50.640625 37.984375 -50.445312 37.984375 -50.0625 L 37.984375 -16.90625 C 37.984375 -13.351562 37.148438 -10.3125 35.484375 -7.78125 C 33.816406 -5.25 31.546875 -3.316406 28.671875 -1.984375 C 25.804688 -0.660156 22.578125 0 18.984375 0 C 15.523438 0 12.347656 -0.679688 9.453125 -2.046875 C 6.566406 -3.421875 4.269531 -5.375 2.5625 -7.90625 C 0.851562 -10.4375 0 -13.4375 0 -16.90625 L 0 -41.453125 L 9.5625 -41.453125 L 9.5625 -16.96875 C 9.851562 -14.476562 10.914062 -12.578125 12.75 -11.265625 C 14.582031 -9.953125 16.660156 -9.296875 18.984375 -9.296875 C 20.585938 -9.296875 22.109375 -9.570312 23.546875 -10.125 C 24.984375 -10.675781 26.15625 -11.519531 27.0625 -12.65625 C 27.96875 -13.800781 28.421875 -15.21875 28.421875 -16.90625 L 28.421875 -50.0625 C 28.421875 -50.445312 28.648438 -50.640625 29.109375 -50.640625 Z M 37.34375 -50.640625 "/></g></g></g><g fill="#5ce1e6" fill-opacity="1"><g transform="translate(286.69154, 165.52154)"><g><path d="M 39.75 -0.765625 C 39.832031 -0.585938 39.8125 -0.414062 39.6875 -0.25 C 39.5625 -0.0820312 39.394531 0 39.1875 0 L 30.453125 0 C 30.148438 0 29.957031 -0.125 29.875 -0.375 L 19.875 -28.609375 L 10 -0.375 C 9.957031 -0.125 9.75 0 9.375 0 L 0.703125 0 C 0.398438 0 0.195312 -0.0820312 0.09375 -0.25 C -0.0078125 -0.414062 -0.0195312 -0.585938 0.0625 -0.765625 L 19.25 -50.25 C 19.332031 -50.507812 19.539062 -50.640625 19.875 -50.640625 C 20.207031 -50.640625 20.421875 -50.507812 20.515625 -50.25 Z M 39.75 -0.765625 "/></g></g></g><g fill="#d9d9d9" fill-opacity="1"><g transform="translate(217.262847, 228.975499)"><g><path d="M 8.984375 -50.640625 C 11.429688 -50.640625 14.023438 -50.46875 16.765625 -50.125 C 19.515625 -49.789062 22.175781 -49.140625 24.75 -48.171875 C 27.320312 -47.203125 29.648438 -45.785156 31.734375 -43.921875 C 33.828125 -42.066406 35.492188 -39.628906 36.734375 -36.609375 C 37.984375 -33.597656 38.609375 -29.832031 38.609375 -25.3125 C 38.609375 -20.96875 37.992188 -17.304688 36.765625 -14.328125 C 35.546875 -11.359375 33.898438 -8.929688 31.828125 -7.046875 C 29.765625 -5.171875 27.4375 -3.71875 24.84375 -2.6875 C 22.25 -1.65625 19.585938 -0.945312 16.859375 -0.5625 C 14.140625 -0.1875 11.515625 0 8.984375 0 L 0.703125 0 C 0.234375 0 0 -0.1875 0 -0.5625 L 0 -20.4375 L 9.6875 -20.4375 L 9.6875 -9.296875 C 10.90625 -9.253906 12.335938 -9.285156 13.984375 -9.390625 C 15.628906 -9.503906 17.316406 -9.820312 19.046875 -10.34375 C 20.773438 -10.875 22.390625 -11.707031 23.890625 -12.84375 C 25.390625 -13.988281 26.59375 -15.570312 27.5 -17.59375 C 28.40625 -19.625 28.859375 -22.195312 28.859375 -25.3125 C 28.859375 -29.320312 28.023438 -32.539062 26.359375 -34.96875 C 24.691406 -37.394531 22.410156 -39.125 19.515625 -40.15625 C 16.628906 -41.195312 13.351562 -41.609375 9.6875 -41.390625 L 9.6875 -30.1875 L 0 -30.1875 L 0 -50.0625 C 0 -50.445312 0.234375 -50.640625 0.703125 -50.640625 Z M 8.984375 -50.640625 "/></g></g></g><g fill="#d9d9d9" fill-opacity="1"><g transform="translate(257.826084, 228.975499)"><g><path d="M 8.984375 -50.640625 C 11.429688 -50.640625 14.023438 -50.46875 16.765625 -50.125 C 19.515625 -49.789062 22.175781 -49.140625 24.75 -48.171875 C 27.320312 -47.203125 29.648438 -45.785156 31.734375 -43.921875 C 33.828125 -42.066406 35.492188 -39.628906 36.734375 -36.609375 C 37.984375 -33.597656 38.609375 -29.832031 38.609375 -25.3125 C 38.609375 -20.96875 37.992188 -17.304688 36.765625 -14.328125 C 35.546875 -11.359375 33.898438 -8.929688 31.828125 -7.046875 C 29.765625 -5.171875 27.4375 -3.71875 24.84375 -2.6875 C 22.25 -1.65625 19.585938 -0.945312 16.859375 -0.5625 C 14.140625 -0.1875 11.515625 0 8.984375 0 L 0.703125 0 C 0.234375 0 0 -0.1875 0 -0.5625 L 0 -20.4375 L 9.6875 -20.4375 L 9.6875 -9.296875 C 10.90625 -9.253906 12.335938 -9.285156 13.984375 -9.390625 C 15.628906 -9.503906 17.316406 -9.820312 19.046875 -10.34375 C 20.773438 -10.875 22.390625 -11.707031 23.890625 -12.84375 C 25.390625 -13.988281 26.59375 -15.570312 27.5 -17.59375 C 28.40625 -19.625 28.859375 -22.195312 28.859375 -25.3125 C 28.859375 -29.320312 28.023438 -32.539062 26.359375 -34.96875 C 24.691406 -37.394531 22.410156 -39.125 19.515625 -40.15625 C 16.628906 -41.195312 13.351562 -41.609375 9.6875 -41.390625 L 9.6875 -30.1875 L 0 -30.1875 L 0 -50.0625 C 0 -50.445312 0.234375 -50.640625 0.703125 -50.640625 Z M 8.984375 -50.640625 "/></g></g></g><g fill="#d9d9d9" fill-opacity="1"><g transform="translate(298.389322, 228.975499)"><g><path d="M 28.734375 -40.953125 L 40.515625 -40.953125 L 28.296875 -23.796875 L 28.296875 -0.5625 C 28.296875 -0.1875 28.0625 0 27.59375 0 L 19.3125 0 C 18.84375 0 18.609375 -0.1875 18.609375 -0.5625 L 18.609375 -23.796875 C 15.566406 -28.140625 12.492188 -32.460938 9.390625 -36.765625 C 6.296875 -41.078125 3.207031 -45.382812 0.125 -49.6875 C -0.0390625 -49.894531 -0.0625 -50.101562 0.0625 -50.3125 C 0.1875 -50.53125 0.421875 -50.640625 0.765625 -50.640625 L 10.765625 -50.640625 C 11.054688 -50.640625 11.265625 -50.578125 11.390625 -50.453125 L 23.421875 -33.546875 Z M 28.734375 -40.953125 "/></g></g></g></svg>